<?xml version="1.0" encoding="UTF-8"?>
<svg width="154px" height="32px" viewBox="0 0 154 32" version="1.1" xmlns="http://www.w3.org/2000/svg" xmlns:xlink="http://www.w3.org/1999/xlink">
    <!-- Generator: Sketch 53 (72520) - https://sketchapp.com -->
    <title>Group 13</title>
    <desc>Created with Sketch.</desc>
    <g id="Website" stroke="none" stroke-width="1" fill="none" fill-rule="evenodd">
        <g id="Checkout/-3" transform="translate(-597.000000, -290.000000)">
            <g id="Group" transform="translate(256.000000, 160.000000)">
                <g id="Group-3" transform="translate(48.000000, 130.000000)">
                    <g id="Group" transform="translate(293.000000, 0.000000)">
                        <g id="Group-7">
                            <g id="Group-13">
                                <g id="Icon/white/Visa">
                                    <g id="Visa-">
                                        <path d="M0.5,2.99610022 L0.5,29.0038998 C0.5,30.3869972 1.61434387,31.5 2.99477224,31.5 L42.9182712,31.5 C44.2907513,31.5 45.4130435,30.3793865 45.4130435,29.0038998 L45.4130435,2.99610022 C45.4130435,1.6130028 44.2986996,0.5 42.9182712,0.5 L2.99477224,0.5 C1.62229213,0.5 0.5,1.62061349 0.5,2.99610022 Z" id="Rectangle-Copy-4" stroke="#D9D8DC" fill="#FFFFFF"></path>
                                        <g id="Visa_Inc._logo" transform="translate(7.652174, 11.130435)" fill="#0742A6">
                                            <polygon id="polygon9" points="13.2329349 9.56103779 10.7705388 9.56103779 12.3106978 0.286522781 14.7729593 0.286522781"></polygon>
                                            <path d="M22.1593398,0.513258209 C21.6736471,0.32560153 20.9032983,0.118405476 19.9507642,0.118405476 C17.5190689,0.118405476 15.806689,1.38125231 15.7961861,3.18674299 C15.7759881,4.51883002 17.0222,5.25870353 17.9542668,5.70286368 C18.9069356,6.15672795 19.2307756,6.45296585 19.2307756,6.8575227 C19.2210806,7.47884859 18.4609654,7.76525123 17.7520183,7.76525123 C16.7689181,7.76525123 16.2421562,7.61759126 15.4416452,7.27191481 L15.1174012,7.12373029 L14.7728246,9.20565722 C15.3503506,9.46189842 16.4143772,9.68928953 17.5190689,9.69925592 C20.1027873,9.69925592 21.7848703,8.45594846 21.804799,6.53191017 C21.8146286,5.47612825 21.1565803,4.66714568 19.7378781,4.00608536 C18.8766387,3.58172686 18.3492036,3.29558649 18.3492036,2.86139273 C18.3593025,2.46667113 18.7953084,2.06237655 19.7675018,2.06237655 C20.5680128,2.04257491 21.1561763,2.22996931 21.6017425,2.41749485 L21.8244583,2.51597855 L22.1593398,0.513258209 L22.1593398,0.513258209 L22.1593398,0.513258209 Z" id="path11"></path>
                                            <path d="M25.4320767,6.2754067 C25.6348638,5.74259811 26.415177,3.68047283 26.415177,3.68047283 C26.4049433,3.70027447 26.6175601,3.13782898 26.7391516,2.79254594 L26.911238,3.59169325 C26.911238,3.59169325 27.3775407,5.81170717 27.4787996,6.2754067 C27.0939618,6.2754067 25.9184427,6.2754067 25.4320767,6.2754067 L25.4320767,6.2754067 Z M28.4715949,0.286522781 L26.5669307,0.286522781 C25.9795751,0.286522781 25.5333356,0.454115538 25.279919,1.05603319 L21.6223444,9.56090666 L24.2060627,9.56090666 C24.2060627,9.56090666 24.631431,8.41621403 24.7228603,8.16967695 C25.0063045,8.16967695 27.5197341,8.16967695 27.8843739,8.16967695 C27.9550666,8.49528948 28.1781864,9.56090666 28.1781864,9.56090666 L30.4581279,9.56090666 L28.4715949,0.286522781 L28.4715949,0.286522781 L28.4715949,0.286522781 Z" id="path13" fill-rule="nonzero"></path>
                                            <path d="M8.71385156,0.286522781 L6.30235416,6.61085449 L6.03883858,5.328206 C5.59300309,3.84819672 4.19476818,2.24019798 2.63441127,1.44065726 L4.84325617,9.55120254 L7.44717246,9.55120254 L11.3176332,0.286522781 L8.71385156,0.286522781 L8.71385156,0.286522781 L8.71385156,0.286522781 Z" id="path15"></path>
                                            <path d="M4.06307772,0.286522781 L0.101322376,0.286522781 L0.0607918763,0.473917186 C3.15120881,1.24355873 5.19793171,3.09875023 6.03883858,5.32859941 L5.17759913,1.06613072 C5.03580971,0.47378605 4.60007318,0.306062155 4.06307772,0.286522781 L4.06307772,0.286522781 Z" id="path17"></path>
                                        </g>
                                    </g>
                                </g>
                                <g id="Icon/white/Mastercard-" transform="translate(54.000000, 0.000000)">
                                    <g id="Mastercard-">
                                        <path d="M0.5,2.99610022 L0.5,29.0038998 C0.5,30.3869972 1.61434387,31.5 2.99477224,31.5 L42.9182712,31.5 C44.2907513,31.5 45.4130435,30.3793865 45.4130435,29.0038998 L45.4130435,2.99610022 C45.4130435,1.6130028 44.2986996,0.5 42.9182712,0.5 L2.99477224,0.5 C1.62229213,0.5 0.5,1.62061349 0.5,2.99610022 Z" id="Rectangle-Copy-4" stroke="#D9D8DC" fill="#FFFFFF"></path>
                                        <g id="mc_symbol" transform="translate(9.043478, 6.956522)">
                                            <g id="Group" opacity="0" fill="#FFFFFF">
                                                <rect id="Rectangle" x="0" y="0" width="27.6974967" height="18.0661669"></rect>
                                            </g>
                                            <rect id="Rectangle" fill="#FF5F00" x="10.1965744" y="3.14754623" width="7.30645586" height="11.7689955"></rect>
                                            <path d="M10.9491436,9.03308346 C10.9473091,6.73687187 12.0161494,4.5673471 13.8476943,3.14962519 C10.7361877,0.73804175 6.26793935,1.08930973 3.58311418,3.95656744 C0.898289006,6.82382514 0.898289006,11.2444207 3.58311418,14.1116784 C6.26793935,16.9789361 10.7361877,17.3302041 13.8476943,14.9186207 C12.0155665,13.5004486 10.9466609,11.3300246 10.9491436,9.03308346 Z" id="Path" fill="#EB001B"></path>
                                            <path d="M25.48639,14.2286748 L25.48639,13.5256445 L25.6530567,13.5256445 L25.6530567,13.3801899 L25.25639,13.3801899 L25.25639,13.5256445 L25.4130567,13.5256445 L25.4130567,14.2286748 L25.48639,14.2286748 Z M26.25639,14.2286748 L26.25639,13.3801899 L26.13639,13.3801899 L25.99639,13.9862505 L25.85639,13.3801899 L25.73639,13.3801899 L25.73639,14.2286748 L25.8230567,14.2286748 L25.8230567,13.5862505 L25.9530567,14.1377657 L26.0430567,14.1377657 L26.1730567,13.5862505 L26.1730567,14.2286748 L26.25639,14.2286748 Z" id="Shape" fill="#F79E1B" fill-rule="nonzero"></path>
                                            <path d="M26.1270092,9.03308346 C26.1269415,11.8985938 24.4678621,14.512527 21.8543885,15.7647356 C19.2409148,17.0169441 16.1318766,16.6875863 13.8476943,14.9165417 C15.6784401,13.4976162 16.7473609,11.3283799 16.7473609,9.03204398 C16.7473609,6.73570807 15.6784401,4.56647174 13.8476943,3.14754623 C16.1318766,1.37650163 19.2409148,1.04714384 21.8543885,2.2993524 C24.4678621,3.55156095 26.1269415,6.16549413 26.1270092,9.0310045 L26.1270092,9.03308346 Z" id="Path" fill="#F79E1B"></path>
                                        </g>
                                    </g>
                                </g>
                                <g id="Icon/white/Maestro-" transform="translate(108.000000, 0.000000)">
                                    <g id="Maestro-">
                                        <path d="M0.5,2.99610022 L0.5,29.0038998 C0.5,30.3869972 1.61434387,31.5 2.99477224,31.5 L42.9182712,31.5 C44.2907513,31.5 45.4130435,30.3793865 45.4130435,29.0038998 L45.4130435,2.99610022 C45.4130435,1.6130028 44.2986996,0.5 42.9182712,0.5 L2.99477224,0.5 C1.62229213,0.5 0.5,1.62061349 0.5,2.99610022 Z" id="Rectangle-Copy-11" stroke="#D9D8DC" fill="#FFFFFF"></path>
                                        <g id="_Group_" transform="translate(9.043478, 7.652174)">
                                            <rect id="Rectangle" fill="#7673C0" x="10.2484893" y="2.06789756" width="7.42815033" height="13.4865992"></rect>
                                            <path d="M10.7224761,8.81000596 C10.7204238,6.17867813 11.9160758,3.69252619 13.9649226,2.06789756 C10.4842542,-0.695639838 5.48587468,-0.293106718 2.48251092,2.99260746 C-0.520852829,6.27832164 -0.520852829,11.3440726 2.48251092,14.6297868 C5.48587468,17.915501 10.4842542,18.3180341 13.9649226,15.5544967 C11.9154237,13.9293522 10.7196988,11.4421698 10.7224761,8.81000596 L10.7224761,8.81000596 Z" id="_Path_" fill="#EB001B"></path>
                                            <path d="M26.9577417,14.7406951 L26.9577417,13.9542544 L27.1128572,13.9542544 L27.1128572,13.7915426 L26.7201179,13.7915426 L26.7201179,13.9542544 L26.8752334,13.9542544 L26.8752334,14.7406951 L26.9577417,14.7406951 Z M27.7201179,14.7406951 L27.7201179,13.7915426 L27.601306,13.7915426 L27.4626922,14.4695087 L27.3240783,13.7915426 L27.2019661,13.7915426 L27.2019661,14.7406951 L27.2877747,14.7406951 L27.2877747,14.0288307 L27.4164875,14.6457799 L27.5055965,14.6457799 L27.6343093,14.0288307 L27.6343093,14.7474748 L27.7201179,14.7406951 Z" id="Shape" fill="#00A1DF" fill-rule="nonzero"></path>
                                            <path d="M27.6987472,8.81000596 C27.6986715,12.0937178 25.8427522,15.0891365 22.9192054,16.5240962 C19.9956586,17.959056 16.5177515,17.5816307 13.9625645,15.5521144 C16.0105174,13.9261064 17.2062593,11.4402851 17.2062593,8.80881477 C17.2062593,6.17734449 16.0105174,3.69152309 13.9625645,2.06551519 C16.5180859,0.0357330374 19.9965339,-0.341504161 22.9202661,1.09405369 C25.8439983,2.52961154 27.6995745,5.52586433 27.6987472,8.81000596 Z" id="Path" fill="#00A1DF"></path>
                                        </g>
                                    </g>
                                </g>
                            </g>
                        </g>
                    </g>
                </g>
            </g>
        </g>
    </g>
</svg>