<?xml version="1.0" encoding="UTF-8"?>
<svg width="108px" height="107px" viewBox="0 0 108 107" version="1.1" xmlns="http://www.w3.org/2000/svg" xmlns:xlink="http://www.w3.org/1999/xlink">
    <!-- Generator: Sketch 53 (72520) - https://sketchapp.com -->
    <title>Group 9</title>
    <desc>Created with Sketch.</desc>
    <g id="Icons" stroke="none" stroke-width="1" fill="none" fill-rule="evenodd">
        <g id="Group-9" fill-rule="nonzero">
            <g id="download" fill="#F35627">
                <ellipse id="Oval" cx="54" cy="53.5" rx="54" ry="53.5"></ellipse>
            </g>
            <g id="Group-5" transform="translate(26.000000, 26.000000)">
                <g id="pen-solid" transform="translate(6.712329, 6.615120)" fill="#DE3A11">
                    <path d="M27.9750685,8.81134021 L40.2509589,20.9094502 L13.5943836,47.1799828 L2.64945205,48.3707045 C1.18424658,48.5304124 -0.0536986301,47.3094502 0.109315068,45.8654639 L1.32712329,35.0714777 L27.9750685,8.81134021 Z M47.8435616,7.01013746 L42.079589,1.32963918 C40.2816438,-0.442268041 37.3656164,-0.442268041 35.5676712,1.32963918 L30.1450685,6.67371134 L42.4209589,18.7718213 L47.8435616,13.4277491 C49.6415068,11.6548969 49.6415068,8.78204467 47.8435616,7.01013746 Z" id="Shape"></path>
                </g>
                <g id="pen-solid" fill="#FFFFFF">
                    <path d="M27.9750685,8.81134021 L40.2509589,20.9094502 L13.5943836,47.1799828 L2.64945205,48.3707045 C1.18424658,48.5304124 -0.0536986301,47.3094502 0.109315068,45.8654639 L1.32712329,35.0714777 L27.9750685,8.81134021 Z M47.8435616,7.01013746 L42.079589,1.32963918 C40.2816438,-0.442268041 37.3656164,-0.442268041 35.5676712,1.32963918 L30.1450685,6.67371134 L42.4209589,18.7718213 L47.8435616,13.4277491 C49.6415068,11.6548969 49.6415068,8.78204467 47.8435616,7.01013746 Z" id="Shape"></path>
                </g>
            </g>
        </g>
    </g>
</svg>