<svg xmlns="http://www.w3.org/2000/svg" width="101" height="101" viewBox="0 0 101 101"><g transform="translate(-385 -285)"><circle cx="50.5" cy="50.5" r="50.5" transform="translate(385 285)" fill="#f0b429"/><path d="M41.518,0H5.931A5.937,5.937,0,0,0,0,5.931v26.69a5.937,5.937,0,0,0,5.931,5.931h8.9v7.785a1.115,1.115,0,0,0,1.77.9l11.575-8.683H41.518a5.937,5.937,0,0,0,5.931-5.931V5.931A5.937,5.937,0,0,0,41.518,0ZM26.69,24.466a.744.744,0,0,1-.741.741H12.6a.744.744,0,0,1-.741-.741V22.983a.744.744,0,0,1,.741-.741H25.948a.744.744,0,0,1,.741.741Zm8.9-8.9a.744.744,0,0,1-.741.741H12.6a.744.744,0,0,1-.741-.741V14.086a.744.744,0,0,1,.741-.741H34.845a.744.744,0,0,1,.741.741Z" transform="translate(412 312)" fill="#fff"/></g></svg>