<?xml version="1.0" encoding="UTF-8"?>
<svg width="102px" height="102px" viewBox="0 0 102 102" version="1.1" xmlns="http://www.w3.org/2000/svg" xmlns:xlink="http://www.w3.org/1999/xlink">
    <!-- Generator: Sketch 53 (72520) - https://sketchapp.com -->
    <title>Icon Complete</title>
    <desc>Created with Sketch.</desc>
    <g id="Icons" stroke="none" stroke-width="1" fill="none" fill-rule="evenodd">
        <g id="Icon-Complete">
            <circle id="Oval" fill="#F35627" cx="51" cy="51" r="51"></circle>
            <g id="Group-6" transform="translate(25.000000, 28.000000)" fill-rule="nonzero">
                <g id="box-check-solid" transform="translate(2.000000, 5.000000)" fill="#DE3A11">
                    <path d="M18.75,0 L7.703125,0 C6.0859375,0 4.65625,1.03125 4.1484375,2.5625 L0.1953125,14.421875 C0.1328125,14.609375 0.1328125,14.8046875 0.1015625,15 L18.75,15 L18.75,0 Z M37.125,6.3828125 L35.8515625,2.5703125 C35.34375,1.03125 33.9140625,0 32.296875,0 L21.25,0 L21.25,12.296875 C24.6796875,8.5859375 29.5625,6.25 35,6.25 C35.71875,6.25 36.4296875,6.296875 37.125,6.3828125 Z M16.25,25 C16.25,22.3359375 16.8203125,19.796875 17.828125,17.5 L0,17.5 L0,36.25 C0,38.3203125 1.6796875,40 3.75,40 L23.796875,40 C19.2265625,36.578125 16.25,31.140625 16.25,25 Z M35,10 C26.71875,10 20,16.71875 20,25 C20,33.28125 26.71875,40 35,40 C43.28125,40 50,33.28125 50,25 C50,16.71875 43.28125,10 35,10 Z M43.9140625,21.546875 L33.6796875,31.703125 C33.34375,32.0390625 32.796875,32.0390625 32.4609375,31.6953125 L26.546875,25.734375 C26.2109375,25.3984375 26.21875,24.8515625 26.5546875,24.515625 L28.5859375,22.5 C28.921875,22.1640625 29.46875,22.171875 29.8046875,22.5078125 L33.09375,25.828125 L40.6875,18.296875 C41.0234375,17.9609375 41.5703125,17.96875 41.90625,18.3046875 L43.921875,20.3359375 C44.25,20.671875 44.25,21.21875 43.9140625,21.546875 L43.9140625,21.546875 Z" id="Shape"></path>
                </g>
                <path d="M18.75,0 L7.703125,0 C6.0859375,0 4.65625,1.03125 4.1484375,2.5625 L0.1953125,14.421875 C0.1328125,14.609375 0.1328125,14.8046875 0.1015625,15 L18.75,15 L18.75,0 Z M37.125,6.3828125 L35.8515625,2.5703125 C35.34375,1.03125 33.9140625,0 32.296875,0 L21.25,0 L21.25,12.296875 C24.6796875,8.5859375 29.5625,6.25 35,6.25 C35.71875,6.25 36.4296875,6.296875 37.125,6.3828125 Z M16.25,25 C16.25,22.3359375 16.8203125,19.796875 17.828125,17.5 L0,17.5 L0,36.25 C0,38.3203125 1.6796875,40 3.75,40 L23.796875,40 C19.2265625,36.578125 16.25,31.140625 16.25,25 Z M35,10 C26.71875,10 20,16.71875 20,25 C20,33.28125 26.71875,40 35,40 C43.28125,40 50,33.28125 50,25 C50,16.71875 43.28125,10 35,10 Z M43.9140625,21.546875 L33.6796875,31.703125 C33.34375,32.0390625 32.796875,32.0390625 32.4609375,31.6953125 L26.546875,25.734375 C26.2109375,25.3984375 26.21875,24.8515625 26.5546875,24.515625 L28.5859375,22.5 C28.921875,22.1640625 29.46875,22.171875 29.8046875,22.5078125 L33.09375,25.828125 L40.6875,18.296875 C41.0234375,17.9609375 41.5703125,17.96875 41.90625,18.3046875 L43.921875,20.3359375 C44.25,20.671875 44.25,21.21875 43.9140625,21.546875 L43.9140625,21.546875 Z" id="Shape" fill="#FFFFFF"></path>
            </g>
        </g>
    </g>
</svg>