<?xml version="1.0" encoding="UTF-8"?>
<svg width="102px" height="102px" viewBox="0 0 102 102" version="1.1" xmlns="http://www.w3.org/2000/svg" xmlns:xlink="http://www.w3.org/1999/xlink">
    <!-- Generator: Sketch 53 (72520) - https://sketchapp.com -->
    <title>Icon Search</title>
    <desc>Created with Sketch.</desc>
    <g id="Icons" stroke="none" stroke-width="1" fill="none" fill-rule="evenodd">
        <g id="Icon-Search">
            <circle id="Oval" fill="#F35627" cx="51" cy="51" r="51"></circle>
            <g id="Group-3" transform="translate(24.000000, 25.000000)" fill-rule="nonzero">
                <g id="search-solid" transform="translate(5.000000, 4.000000)" fill="#DE3A11">
                    <path d="M47.3472132,41.4990724 L37.9996545,32.15311 C37.5777486,31.7312762 37.0058318,31.4969241 36.4057879,31.4969241 L34.8775511,31.4969241 C37.4652404,28.1878723 39.0028528,24.0257787 39.0028528,19.4980959 C39.0028528,8.72727273 30.2740894,0 19.5014264,0 C8.72876346,0 0,8.72727273 0,19.4980959 C0,30.2689191 8.72876346,38.9961918 19.5014264,38.9961918 C24.0298826,38.9961918 28.1926871,37.4588419 31.5023042,34.8715946 L31.5023042,36.3995704 C31.5023042,36.9995118 31.7366964,37.5713309 32.1586022,37.9931647 L41.5061609,47.339127 C42.3874754,48.220291 43.8125796,48.220291 44.6845184,47.339127 L47.3378375,44.6862611 C48.219152,43.8050972 48.219152,42.3802363 47.3472132,41.4990724 Z M19.5014264,31.4969241 C12.8728166,31.4969241 7.50054862,26.1349478 7.50054862,19.4980959 C7.50054862,12.8706181 12.8634409,7.49926765 19.5014264,7.49926765 C26.1300363,7.49926765 31.5023042,12.861244 31.5023042,19.4980959 C31.5023042,26.1255737 26.1394119,31.4969241 19.5014264,31.4969241 Z" id="Shape"></path>
                </g>
                <g id="search-solid" fill="#FFFFFF">
                    <path d="M47.3472132,41.4990724 L37.9996545,32.15311 C37.5777486,31.7312762 37.0058318,31.4969241 36.4057879,31.4969241 L34.8775511,31.4969241 C37.4652404,28.1878723 39.0028528,24.0257787 39.0028528,19.4980959 C39.0028528,8.72727273 30.2740894,0 19.5014264,0 C8.72876346,0 0,8.72727273 0,19.4980959 C0,30.2689191 8.72876346,38.9961918 19.5014264,38.9961918 C24.0298826,38.9961918 28.1926871,37.4588419 31.5023042,34.8715946 L31.5023042,36.3995704 C31.5023042,36.9995118 31.7366964,37.5713309 32.1586022,37.9931647 L41.5061609,47.339127 C42.3874754,48.220291 43.8125796,48.220291 44.6845184,47.339127 L47.3378375,44.6862611 C48.219152,43.8050972 48.219152,42.3802363 47.3472132,41.4990724 Z M19.5014264,31.4969241 C12.8728166,31.4969241 7.50054862,26.1349478 7.50054862,19.4980959 C7.50054862,12.8706181 12.8634409,7.49926765 19.5014264,7.49926765 C26.1300363,7.49926765 31.5023042,12.861244 31.5023042,19.4980959 C31.5023042,26.1255737 26.1394119,31.4969241 19.5014264,31.4969241 Z" id="Shape"></path>
                </g>
            </g>
        </g>
    </g>
</svg>