<?xml version="1.0" encoding="UTF-8"?>
<svg width="106px" height="106px" viewBox="0 0 106 106" version="1.1" xmlns="http://www.w3.org/2000/svg" xmlns:xlink="http://www.w3.org/1999/xlink">
    <!-- Generator: Sketch 54.1 (76490) - https://sketchapp.com -->
    <title>Untitled 20</title>
    <desc>Created with Sketch.</desc>
    <g id="Page-1" stroke="none" stroke-width="1" fill="none" fill-rule="evenodd">
        <g id="icon-processing" fill-rule="nonzero">
            <g id="Group-7-Copy" fill="#2C3E50">
                <circle id="Oval" cx="53" cy="53" r="53"></circle>
            </g>
            <g id="eye" transform="translate(12.000000, 28.000000)" fill="#FFFFFF">
                <path d="M41.5,0 C25.6419658,0 11.2610719,8.76801647 0.649432341,23.0096088 C-0.216477447,24.1763898 -0.216477447,25.8064516 0.649432341,26.9732327 C11.2610719,41.2319835 25.6419658,50 41.5,50 C57.3580342,50 71.7389281,41.2319835 82.3505677,26.9903912 C83.2164774,25.8236102 83.2164774,24.1935484 82.3505677,23.0267673 C71.7389281,8.76801647 57.3580342,0 41.5,0 Z M42.6375678,42.6046671 C32.1108213,43.2738504 23.4177662,34.5058339 24.0799325,23.8503775 C24.6232484,15.0652025 31.6693771,7.94440631 40.3624322,7.39533288 C50.8891787,6.72614962 59.5822338,15.4941661 58.9200675,26.1496225 C58.3597729,34.917639 51.3136443,42.0384351 42.6375678,42.6046671 Z M42.1112304,34.4715168 C36.4403703,34.8318463 31.7542702,30.1132464 32.1277999,24.3822924 C32.4164365,19.646534 36.2196482,15.8201784 40.9057482,15.5113246 C46.5766084,15.1509952 51.2627084,19.8695951 50.8891787,25.6005491 C50.5835635,30.353466 46.7803518,34.1798216 42.1112304,34.4715168 Z" id="Shape"></path>
            </g>
        </g>
    </g>
</svg>