<?xml version="1.0" encoding="UTF-8"?>
<svg width="101px" height="101px" viewBox="0 0 101 101" version="1.1" xmlns="http://www.w3.org/2000/svg" xmlns:xlink="http://www.w3.org/1999/xlink">
    <!-- Generator: Sketch 54.1 (76490) - https://sketchapp.com -->
    <title>Icon-active-followers-2</title>
    <desc>Created with Sketch.</desc>
    <g id="Page-1" stroke="none" stroke-width="1" fill="none" fill-rule="evenodd">
        <g id="Icon-active-followers-2" fill-rule="nonzero">
            <circle id="Oval" fill="#000000" cx="50.5" cy="50.5" r="50.5"></circle>
            <g id="badge" transform="translate(19.000000, 20.000000)">
                <polygon id="Path_7" fill="#0096F1" points="5.46710767 26.8134101 2.95410089 16.7012448 12.971308 13.8805934 14.5484355 5.11071772 24.9546285 5.58976034 32.3311148 0 40.473398 6.39127747 49.9497991 6.39127747 51.8855972 15.4991511 60.4079786 19.3147558 58.5352461 29.0168848 63 36.9508008 55.8553224 44.2826997 55.8553224 53.489535 45.1901709 55.2934033 40.4731545 62 31.5074875 57.684493 22.6031817 61.3745765 16.6237572 53.489535 7.45732722 52.7155477 7.45732722 41.2042142 0 34.873575"></polygon>
                <path d="M27.1898833,43.5689431 L17.4390653,33.9799398 C16.8536449,33.4038709 16.8536449,32.4702564 17.4390653,31.8941875 L19.5599879,29.8084353 C20.1457423,29.2326557 21.0951559,29.2326557 21.6809104,29.8084353 L28.2494814,36.2680827 L42.3190896,22.4317845 C42.9048723,21.8560718 43.8542295,21.8560718 44.4400121,22.4317845 L46.5609347,24.5175367 C47.1463551,25.0936056 47.1463551,26.0272201 46.5609347,26.603289 L29.3099427,43.5682155 C28.72416,44.1439282 27.7748028,44.1439282 27.1890202,43.5682155 L27.1898833,43.5689431 Z" id="check-solid" fill="#FFFFFF"></path>
            </g>
        </g>
    </g>
</svg>