<svg xmlns="http://www.w3.org/2000/svg" width="101" height="101" viewBox="0 0 101 101"><g transform="translate(-81 -285)"><circle cx="50.5" cy="50.5" r="50.5" transform="translate(81 285)" fill="#2251cc"/><path d="M23.864,26.847A13.424,13.424,0,1,0,10.441,13.424,13.427,13.427,0,0,0,23.864,26.847ZM35.8,29.83H30.66a16.227,16.227,0,0,1-13.591,0H11.932A11.931,11.931,0,0,0,0,41.762v1.492a4.476,4.476,0,0,0,4.475,4.475H43.254a4.476,4.476,0,0,0,4.475-4.475V41.762A11.931,11.931,0,0,0,35.8,29.83Z" transform="translate(108 312)" fill="#fff"/></g></svg>