<svg xmlns="http://www.w3.org/2000/svg" width="101" height="101" viewBox="0 0 101 101"><g transform="translate(-229 -285)"><circle cx="50.5" cy="50.5" r="50.5" transform="translate(229 285)" fill="#6cd410"/><path d="M22.194,25.364A12.682,12.682,0,1,0,9.512,12.682,12.681,12.681,0,0,0,22.194,25.364Zm8.877,3.171H29.417a17.247,17.247,0,0,1-14.446,0H13.316A13.32,13.32,0,0,0,0,41.851v4.122a4.757,4.757,0,0,0,4.756,4.756H39.632a4.757,4.757,0,0,0,4.756-4.756V41.851A13.32,13.32,0,0,0,31.071,28.535Zm32-12.722-2.754-2.784a1.175,1.175,0,0,0-1.665-.01l-10.383,10.3-4.508-4.538a1.175,1.175,0,0,0-1.665-.01L39.315,21.54A1.175,1.175,0,0,0,39.3,23.2L47.4,31.359a1.175,1.175,0,0,0,1.665.01l14-13.891A1.184,1.184,0,0,0,63.074,15.813Z" transform="translate(248 310)" fill="#fff"/></g></svg>