<?xml version="1.0" encoding="UTF-8"?>
<svg width="293px" height="53px" viewBox="0 0 293 53" version="1.1" xmlns="http://www.w3.org/2000/svg" xmlns:xlink="http://www.w3.org/1999/xlink">
    <!-- Generator: Sketch 53 (72520) - https://sketchapp.com -->
    <title>rating-stars</title>
    <desc>Created with Sketch.</desc>
    <g id="Idea-board" stroke="none" stroke-width="1" fill="none" fill-rule="evenodd">
        <g id="rating-stars" fill-rule="nonzero">
            <rect id="Rectangle" fill="#6CD410" x="0" y="0" width="52.576" height="52.576" rx="7"></rect>
            <path d="M24.802,13.165 L21.363,20.14 L13.669,21.259 C13.0346675,21.3522625 12.5081299,21.7972419 12.3104145,22.4071471 C12.1126992,23.0170522 12.278028,23.6863167 12.737,24.134 L18.303,29.558 L16.987,37.221 C16.8796809,37.8517639 17.1390888,38.488858 17.6564954,38.8652501 C18.1739019,39.2416421 18.8599156,39.2923035 19.427,38.996 L26.31,35.378 L33.193,38.996 C33.7604223,39.2937411 34.4476166,39.2438642 34.9660979,38.8673075 C35.4845793,38.4907509 35.7445988,37.8526964 35.637,37.221 L34.327,29.559 L39.893,24.135 C40.351972,23.6873167 40.5173008,23.0180522 40.3195855,22.4081471 C40.1218701,21.7982419 39.5953325,21.3532625 38.961,21.26 L31.264,20.14 L27.827,13.165 C27.5422808,12.5906016 26.9565916,12.2272241 26.3155,12.2272241 C25.6744084,12.2272241 25.0887192,12.5906016 24.804,13.165 L24.802,13.165 Z" id="Path" fill="#FFFFFF"></path>
            <rect id="Rectangle" fill="#6CD410" x="59.912" y="0" width="52.576" height="52.576" rx="7"></rect>
            <path d="M84.714,13.165 L81.275,20.14 L73.581,21.259 C72.9466675,21.3522625 72.4201299,21.7972419 72.2224145,22.4071471 C72.0246992,23.0170522 72.190028,23.6863167 72.649,24.134 L78.215,29.558 L76.899,37.221 C76.7916809,37.8517639 77.0510888,38.488858 77.5684954,38.8652501 C78.0859019,39.2416421 78.7719156,39.2923035 79.339,38.996 L86.222,35.378 L93.105,38.996 C93.6724223,39.2937411 94.3596166,39.2438642 94.8780979,38.8673075 C95.3965793,38.4907509 95.6565988,37.8526964 95.549,37.221 L94.239,29.559 L99.805,24.135 C100.263972,23.6873167 100.429301,23.0180522 100.231585,22.4081471 C100.03387,21.7982419 99.5073325,21.3532625 98.873,21.26 L91.176,20.14 L87.739,13.165 C87.4542808,12.5906016 86.8685916,12.2272241 86.2275,12.2272241 C85.5864084,12.2272241 85.0007192,12.5906016 84.716,13.165 L84.714,13.165 Z" id="Path" fill="#FFFFFF"></path>
            <rect id="Rectangle" fill="#6CD410" x="119.823" y="0" width="52.576" height="52.576" rx="7"></rect>
            <path d="M144.626,13.165 L141.187,20.14 L133.493,21.259 C132.858667,21.3522625 132.33213,21.7972419 132.134415,22.4071471 C131.936699,23.0170522 132.102028,23.6863167 132.561,24.134 L138.127,29.558 L136.811,37.221 C136.703681,37.8517639 136.963089,38.488858 137.480495,38.8652501 C137.997902,39.2416421 138.683916,39.2923035 139.251,38.996 L146.134,35.378 L153.017,38.996 C153.584422,39.2937411 154.271617,39.2438642 154.790098,38.8673075 C155.308579,38.4907509 155.568599,37.8526964 155.461,37.221 L154.151,29.559 L159.717,24.135 C160.175972,23.6873167 160.341301,23.0180522 160.143585,22.4081471 C159.94587,21.7982419 159.419333,21.3532625 158.785,21.26 L151.088,20.14 L147.651,13.165 C147.366281,12.5906016 146.780592,12.2272241 146.1395,12.2272241 C145.498408,12.2272241 144.912719,12.5906016 144.628,13.165 L144.626,13.165 Z" id="Path" fill="#FFFFFF"></path>
            <rect id="Rectangle" fill="#6CD410" x="179.735" y="0" width="52.576" height="52.576" rx="7"></rect>
            <path d="M204.537,13.165 L201.098,20.14 L193.404,21.259 C192.769667,21.3522625 192.24313,21.7972419 192.045415,22.4071471 C191.847699,23.0170522 192.013028,23.6863167 192.472,24.134 L198.038,29.558 L196.722,37.221 C196.614681,37.8517639 196.874089,38.488858 197.391495,38.8652501 C197.908902,39.2416421 198.594916,39.2923035 199.162,38.996 L206.045,35.378 L212.928,38.996 C213.495422,39.2937411 214.182617,39.2438642 214.701098,38.8673075 C215.219579,38.4907509 215.479599,37.8526964 215.372,37.221 L214.062,29.559 L219.628,24.135 C220.086972,23.6873167 220.252301,23.0180522 220.054585,22.4081471 C219.85687,21.7982419 219.330333,21.3532625 218.696,21.26 L210.999,20.14 L207.562,13.165 C207.277281,12.5906016 206.691592,12.2272241 206.0505,12.2272241 C205.409408,12.2272241 204.823719,12.5906016 204.539,13.165 L204.537,13.165 Z" id="Path" fill="#FFFFFF"></path>
            <rect id="Rectangle" fill="#E3E3E3" x="239.647" y="0" width="52.576" height="52.576" rx="7"></rect>
            <path d="M264.449,13.165 L261.01,20.14 L253.316,21.259 C252.681667,21.3522625 252.15513,21.7972419 251.957415,22.4071471 C251.759699,23.0170522 251.925028,23.6863167 252.384,24.134 L257.95,29.558 L256.634,37.221 C256.526681,37.8517639 256.786089,38.488858 257.303495,38.8652501 C257.820902,39.2416421 258.506916,39.2923035 259.074,38.996 L265.957,35.378 L272.84,38.996 C273.407422,39.2937411 274.094617,39.2438642 274.613098,38.8673075 C275.131579,38.4907509 275.391599,37.8526964 275.284,37.221 L273.974,29.559 L279.54,24.135 C279.998972,23.6873167 280.164301,23.0180522 279.966585,22.4081471 C279.76887,21.7982419 279.242333,21.3532625 278.608,21.26 L270.911,20.14 L267.474,13.165 C267.189281,12.5906016 266.603592,12.2272241 265.9625,12.2272241 C265.321408,12.2272241 264.735719,12.5906016 264.451,13.165 L264.449,13.165 Z" id="Path" fill="#FFFFFF"></path>
        </g>
    </g>
</svg>